<?xml version="1.0" encoding="UTF-8" standalone="no"?>
<svg width="119px" height="100px" viewBox="0 0 119 100" version="1.1" xmlns="http://www.w3.org/2000/svg" xmlns:xlink="http://www.w3.org/1999/xlink">
    <!-- Generator: Sketch 3.8.3 (29802) - http://www.bohemiancoding.com/sketch -->
    <title>Group 2</title>
    <desc>Created with Sketch.</desc>
    <defs>
        <linearGradient x1="50%" y1="-340.810697%" x2="50%" y2="100%" id="linearGradient-1">
            <stop stop-color="#81C3F3" offset="0%"></stop>
            <stop stop-color="#4A90E2" offset="100%"></stop>
        </linearGradient>
        <linearGradient x1="50%" y1="-60.1132813%" x2="50%" y2="100%" id="linearGradient-2">
            <stop stop-color="#4A90E2" stop-opacity="0" offset="0%"></stop>
            <stop stop-color="#4A90E2" offset="100%"></stop>
        </linearGradient>
    </defs>
    <g id="Welcome" stroke="none" stroke-width="1" fill="none" fill-rule="evenodd">
        <g id="Desktop" transform="translate(-482.000000, -559.000000)">
            <g id="Group" transform="translate(0.000000, 490.000000)">
                <g id="Description" transform="translate(54.000000, 69.000000)">
                    <g transform="translate(319.000000, 0.000000)" id="Group-2">
                        <g transform="translate(109.000000, 0.000000)">
                            <path d="M87.0909091,78.3333333 L87.0909091,100 L80,100 L80,78.3333333 L87.0909091,78.3333333 L87.0909091,78.3333333 Z M94.1818182,100 C92.2237177,100 90.6363636,98.3832505 90.6363636,96.3888889 L90.6363636,78.3333333 C90.6363636,77.3402778 91.0263636,76.4375 91.6822727,75.7875 L103.346818,63.8888889 L105.225909,65.8027778 C105.704545,66.2902778 106.005909,66.9583333 106.005909,67.6986111 L105.952727,68.2763889 L104.268636,76.5277778 L115.454545,76.5277778 C117.422273,76.5277778 119,78.1527778 119,80.1388889 L119,80.3013889 L119,83.75 C119,84.2194444 118.911364,84.6527778 118.751818,85.0680556 L113.398182,97.7972222 C112.866364,99.0972222 111.607727,100 110.136364,100 L94.1818182,100 L94.1818182,100 Z M94.1818182,96.3888889 L110.189545,96.3888889 L115.454545,83.75 L115.454545,80.1388889 L99.8722727,80.1388889 L101.875455,70.5333333 L94.1818182,78.3875 L94.1818182,96.3888889 L94.1818182,96.3888889 Z" id="Shape" fill="url(#linearGradient-1)"></path>
                            <path d="M42,90.4761905 C23.9586982,90.4761905 9.33333333,75.5523488 9.33333333,57.1428571 C9.33333333,38.7333655 23.9586982,23.8095238 42,23.8095238 C60.0413018,23.8095238 74.6666667,38.7333655 74.6666667,57.1428571 C74.6666667,75.5523488 60.0413018,90.4761905 42,90.4761905 L42,90.4761905 Z M74.8066667,30.4285714 L81.4333333,23.6666667 C79.3333333,21.2380952 77.2333333,19.047619 74.8533333,16.952381 L68.2266667,23.8095238 C60.9933333,17.8095238 51.8933333,14.2857143 42,14.2857143 C18.8040405,14.2857143 4.14483263e-15,33.4735107 0,57.1428571 C4.14483263e-15,80.8122036 18.8040405,100 42,100 C65.3333333,100 84,80.8095238 84,57.1428571 C84,47.047619 80.5466667,37.7619048 74.8066667,30.4285714 L74.8066667,30.4285714 Z M37.3333333,61.9047619 L46.6666667,61.9047619 L46.6666667,33.3333333 L37.3333333,33.3333333 L37.3333333,61.9047619 Z M56,0 L28,0 L28,9.52380952 L56,9.52380952 L56,0 L56,0 Z" id="Shape" fill="url(#linearGradient-2)"></path>
                        </g>
                    </g>
                </g>
            </g>
        </g>
    </g>
</svg>