<?xml version="1.0" encoding="UTF-8" standalone="no"?>
<svg width="45px" height="44px" viewBox="0 0 45 44" version="1.1" xmlns="http://www.w3.org/2000/svg" xmlns:xlink="http://www.w3.org/1999/xlink">
    <!-- Generator: Sketch 3.8.3 (29802) - http://www.bohemiancoding.com/sketch -->
    <title>Group</title>
    <desc>Created with Sketch.</desc>
    <defs></defs>
    <g id="Welcome" stroke="none" stroke-width="1" fill="none" fill-rule="evenodd">
        <g id="Desktop" transform="translate(-123.000000, -32.000000)" fill="#FFFFFF">
            <g id="Header">
                <g id="Big-Writing" transform="translate(123.000000, 31.000000)">
                    <g id="IndicaPsico-logo">
                        <g id="Group">
                            <path d="M25.1807229,34.3146175 C36.1266074,34.3146175 45,27.4578535 45,18.9996064 C45,10.5413594 36.1266074,3.68459534 25.1807229,3.68459534 C14.2348384,3.68459534 5.36144578,10.5413594 5.36144578,18.9996064 C5.36144578,27.4578535 14.2348384,34.3146175 25.1807229,34.3146175 Z" id="Oval-1"></path>
                            <path d="M33.6751694,32.5416439 C35.5812312,25.1120855 26.4175452,32.5416439 27.5183547,33.5815929 C28.6191642,34.6215418 26.4175452,43.9706786 26.4175452,43.9706786 C26.4175452,43.9706786 31.7691077,39.9712024 33.6751694,32.5416439 Z" id="Path-1"></path>
                            <ellipse id="Oval-5" transform="translate(17.048193, 26.778179) rotate(6.000000) translate(-17.048193, -26.778179) " cx="17.0481928" cy="26.7781792" rx="11.5662651" ry="8.08124102"></ellipse>
                            <path d="M18.9759036,40.3074479 C20.8390329,40.3074479 22.3493976,39.2712483 22.3493976,38.0677032 C22.3493976,36.8641582 20.8390329,35.8884922 18.9759036,35.8884922 C17.1127743,35.8884922 15.6024096,36.8641582 15.6024096,38.0677032 C15.6024096,39.2712483 17.1127743,40.3074479 18.9759036,40.3074479 Z" id="Oval-2"></path>
                            <ellipse id="Oval-3" cx="20.0783133" cy="43.180406" rx="2.07831325" ry="1.18040599"></ellipse>
                            <ellipse id="Oval-4" cx="10.9337349" cy="18.9996064" rx="10.813253" ry="7.32457052"></ellipse>
                            <path d="M20.3540834,10.6870666 C20.3540834,7.85727595 16.996219,5.56327735 12.8540834,5.56327735 C8.71194775,5.56327735 5.35408338,7.85727595 5.35408338,10.6870666 C5.35408338,13.5168573 8.71194775,15.8108559 12.8540834,15.8108559 C16.996219,15.8108559 20.3540834,13.5168573 20.3540834,10.6870666 Z" id="Oval-6" transform="translate(12.854083, 10.687067) rotate(12.000000) translate(-12.854083, -10.687067) "></path>
                            <path d="M29.269746,6.69184635 C29.269746,3.86205567 25.9118817,1.56805707 21.769746,1.56805707 C17.6276104,1.56805707 14.269746,3.86205567 14.269746,6.69184635 C14.269746,9.52163702 17.6276104,11.8156356 21.769746,11.8156356 C25.9118817,11.8156356 29.269746,9.52163702 29.269746,6.69184635 Z" id="Oval-6" transform="translate(21.769746, 6.691846) rotate(12.000000) translate(-21.769746, -6.691846) "></path>
                        </g>
                    </g>
                </g>
            </g>
        </g>
    </g>
</svg>